{
	"asset":{
		"generator":"Khronos glTF Blender I/O v5.1.18",
		"version":"2.0"
	},
	"extensionsUsed":[
		"KHR_materials_emissive_strength"
	],
	"scene":0,
	"scenes":[
		{
			"name":"Scene",
			"nodes":[
				0,
				1,
				2,
				3,
				4,
				5,
				6,
				7,
				8,
				9,
				10
			]
		}
	],
	"nodes":[
		{
			"mesh":0,
			"name":"holy_nation",
			"translation":[
				0,
				-1.422493577003479,
				0
			]
		},
		{
			"mesh":1,
			"name":"great_ocean",
			"translation":[
				0,
				-1.422493577003479,
				0
			]
		},
		{
			"mesh":2,
			"name":"pearlescant_haven",
			"translation":[
				0,
				0.5775064826011658,
				0
			]
		},
		{
			"mesh":3,
			"name":"black_mountain",
			"translation":[
				0,
				-1.422493577003479,
				-10
			]
		},
		{
			"mesh":4,
			"name":"great_bridge",
			"rotation":[
				0,
				-0.2588190734386444,
				0,
				0.965925931930542
			],
			"translation":[
				0,
				0.5775064826011658,
				0
			]
		},
		{
			"mesh":5,
			"name":"holy_nation_cathedral_ward",
			"translation":[
				0,
				-1.422493577003479,
				0
			]
		},
		{
			"name":"Empty-noimp",
			"scale":[
				6.005497932434082,
				6.005497932434082,
				6.005497932434082
			],
			"translation":[
				0,
				-4.858313083648682,
				0
			]
		},
		{
			"mesh":6,
			"name":"holy_nation_upper_cathedral_ward",
			"translation":[
				0,
				-1.422493577003479,
				0
			]
		},
		{
			"mesh":7,
			"name":"holy_nation_upper_cathedral_ward.001",
			"translation":[
				0,
				-1.422493577003479,
				0
			]
		},
		{
			"mesh":8,
			"name":"great_ocean.001",
			"translation":[
				0,
				-1.422493577003479,
				0
			]
		},
		{
			"mesh":9,
			"name":"Plane"
		}
	],
	"materials":[
		{
			"alphaMode":"BLEND",
			"emissiveFactor":[
				1,
				1,
				1
			],
			"emissiveTexture":{
				"index":0
			},
			"extensions":{
				"KHR_materials_emissive_strength":{
					"emissiveStrength":3
				}
			},
			"name":"stone",
			"normalTexture":{
				"index":1
			},
			"pbrMetallicRoughness":{
				"baseColorTexture":{
					"index":2
				},
				"metallicFactor":0
			}
		},
		{
			"doubleSided":true,
			"name":"water",
			"normalTexture":{
				"index":3,
				"scale":0.05000000074505806
			},
			"pbrMetallicRoughness":{
				"baseColorFactor":[
					0,
					0,
					0,
					1
				],
				"metallicFactor":0,
				"roughnessFactor":0
			}
		},
		{
			"alphaMode":"BLEND",
			"name":"Material",
			"pbrMetallicRoughness":{
				"baseColorTexture":{
					"index":4
				},
				"metallicFactor":0,
				"roughnessFactor":0.5
			}
		},
		{
			"doubleSided":true,
			"name":"Material.001",
			"pbrMetallicRoughness":{
				"baseColorFactor":[
					0.0023060825187712908,
					0.0023060825187712908,
					0.0023060825187712908,
					1
				],
				"metallicFactor":0
			}
		}
	],
	"meshes":[
		{
			"name":"Cylinder",
			"primitives":[
				{
					"attributes":{
						"POSITION":0,
						"NORMAL":1,
						"TEXCOORD_0":2
					},
					"indices":3,
					"material":0
				}
			]
		},
		{
			"name":"Mesh",
			"primitives":[
				{
					"attributes":{
						"POSITION":4,
						"NORMAL":5,
						"TEXCOORD_0":6
					},
					"indices":7,
					"material":1
				}
			]
		},
		{
			"name":"Cube.001",
			"primitives":[
				{
					"attributes":{
						"POSITION":8,
						"NORMAL":9,
						"TEXCOORD_0":10
					},
					"indices":11
				}
			]
		},
		{
			"name":"Cone",
			"primitives":[
				{
					"attributes":{
						"POSITION":12,
						"NORMAL":13,
						"TEXCOORD_0":14
					},
					"indices":15,
					"material":2
				}
			]
		},
		{
			"name":"Cube.002",
			"primitives":[
				{
					"attributes":{
						"POSITION":16,
						"NORMAL":17,
						"TEXCOORD_0":18
					},
					"indices":19,
					"material":0
				}
			]
		},
		{
			"name":"Cylinder.001",
			"primitives":[
				{
					"attributes":{
						"POSITION":20,
						"NORMAL":21,
						"TEXCOORD_0":22
					},
					"indices":23,
					"material":0
				}
			]
		},
		{
			"name":"Cylinder.002",
			"primitives":[
				{
					"attributes":{
						"POSITION":24,
						"NORMAL":25,
						"TEXCOORD_0":26
					},
					"indices":27,
					"material":0
				}
			]
		},
		{
			"name":"Cylinder.003",
			"primitives":[
				{
					"attributes":{
						"POSITION":28,
						"NORMAL":29,
						"TEXCOORD_0":30
					},
					"indices":31,
					"material":0
				}
			]
		},
		{
			"name":"Mesh",
			"primitives":[
				{
					"attributes":{
						"POSITION":32,
						"NORMAL":33,
						"TEXCOORD_0":34
					},
					"indices":35,
					"material":3
				}
			]
		},
		{
			"name":"Plane.002",
			"primitives":[
				{
					"attributes":{
						"POSITION":36,
						"NORMAL":37,
						"TEXCOORD_0":38
					},
					"indices":39,
					"material":0
				}
			]
		}
	],
	"textures":[
		{
			"sampler":0,
			"source":0
		},
		{
			"sampler":0,
			"source":1
		},
		{
			"sampler":0,
			"source":2
		},
		{
			"sampler":1,
			"source":3
		},
		{
			"sampler":1,
			"source":4
		}
	],
	"images":[
		{
			"mimeType":"image/png",
			"name":"emission0001",
			"uri":"textures/emission0001.png"
		},
		{
			"mimeType":"image/png",
			"name":"normal0001",
			"uri":"textures/normal0001.png"
		},
		{
			"mimeType":"image/png",
			"name":"albedo0001",
			"uri":"textures/albedo0001.png"
		},
		{
			"mimeType":"image/jpeg",
			"name":"Water 0325bnormal",
			"uri":"textures/Water%200325bnormal.jpg"
		},
		{
			"mimeType":"image/png",
			"name":"pngimg.com - mountain_PNG16",
			"uri":"textures/pngimg.com%20-%20mountain_PNG16.png"
		}
	],
	"accessors":[
		{
			"bufferView":0,
			"componentType":5126,
			"count":1404,
			"max":[
				2.058199644088745,
				1.3892457485198975,
				2.058199882507324
			],
			"min":[
				-2.058199882507324,
				1.1629047393798828,
				-2.058199644088745
			],
			"type":"VEC3"
		},
		{
			"bufferView":1,
			"componentType":5126,
			"count":1404,
			"type":"VEC3"
		},
		{
			"bufferView":2,
			"componentType":5126,
			"count":1404,
			"type":"VEC2"
		},
		{
			"bufferView":3,
			"componentType":5123,
			"count":3534,
			"type":"SCALAR"
		},
		{
			"bufferView":4,
			"componentType":5126,
			"count":2170,
			"max":[
				29.754358291625977,
				0.8341239094734192,
				29.754358291625977
			],
			"min":[
				-29.754358291625977,
				-1.0951648950576782,
				-29.754358291625977
			],
			"type":"VEC3"
		},
		{
			"bufferView":5,
			"componentType":5126,
			"count":2170,
			"type":"VEC3"
		},
		{
			"bufferView":6,
			"componentType":5126,
			"count":2170,
			"type":"VEC2"
		},
		{
			"bufferView":7,
			"componentType":5123,
			"count":12288,
			"type":"SCALAR"
		},
		{
			"bufferView":8,
			"componentType":5126,
			"count":16,
			"max":[
				1.7667876482009888,
				0,
				14.193583488464355
			],
			"min":[
				-1.7667876482009888,
				-1.9999998807907104,
				10.660008430480957
			],
			"type":"VEC3"
		},
		{
			"bufferView":9,
			"componentType":5126,
			"count":16,
			"type":"VEC3"
		},
		{
			"bufferView":10,
			"componentType":5126,
			"count":16,
			"type":"VEC2"
		},
		{
			"bufferView":11,
			"componentType":5123,
			"count":24,
			"type":"SCALAR"
		},
		{
			"bufferView":12,
			"componentType":5126,
			"count":24,
			"max":[
				14.028938293457031,
				5.62370491027832,
				15.410856246948242
			],
			"min":[
				11.756528854370117,
				0.29195934534072876,
				4.101682186126709
			],
			"type":"VEC3"
		},
		{
			"bufferView":13,
			"componentType":5126,
			"count":24,
			"type":"VEC3"
		},
		{
			"bufferView":14,
			"componentType":5126,
			"count":24,
			"type":"VEC2"
		},
		{
			"bufferView":15,
			"componentType":5123,
			"count":36,
			"type":"SCALAR"
		},
		{
			"bufferView":16,
			"componentType":5126,
			"count":540,
			"max":[
				-2.0047872066497803,
				-0.6914701461791992,
				0.03382270783185959
			],
			"min":[
				-6.332932472229004,
				-1.2658426761627197,
				-0.03382275253534317
			],
			"type":"VEC3"
		},
		{
			"bufferView":17,
			"componentType":5126,
			"count":540,
			"type":"VEC3"
		},
		{
			"bufferView":18,
			"componentType":5126,
			"count":540,
			"type":"VEC2"
		},
		{
			"bufferView":19,
			"componentType":5123,
			"count":1134,
			"type":"SCALAR"
		},
		{
			"bufferView":20,
			"componentType":5126,
			"count":2473,
			"max":[
				1.4829341173171997,
				1.3000003099441528,
				1.7005454301834106
			],
			"min":[
				-1.4829342365264893,
				1.0152184963226318,
				-1.700545310974121
			],
			"type":"VEC3"
		},
		{
			"bufferView":21,
			"componentType":5126,
			"count":2473,
			"type":"VEC3"
		},
		{
			"bufferView":22,
			"componentType":5126,
			"count":2473,
			"type":"VEC2"
		},
		{
			"bufferView":23,
			"componentType":5123,
			"count":9216,
			"type":"SCALAR"
		},
		{
			"bufferView":24,
			"componentType":5126,
			"count":926,
			"max":[
				0.08748042583465576,
				1.4204069375991821,
				0.08748042583465576
			],
			"min":[
				-0.08748042583465576,
				1.3011471033096313,
				-0.08748042583465576
			],
			"type":"VEC3"
		},
		{
			"bufferView":25,
			"componentType":5126,
			"count":926,
			"type":"VEC3"
		},
		{
			"bufferView":26,
			"componentType":5126,
			"count":926,
			"type":"VEC2"
		},
		{
			"bufferView":27,
			"componentType":5123,
			"count":4224,
			"type":"SCALAR"
		},
		{
			"bufferView":28,
			"componentType":5126,
			"count":307,
			"max":[
				0.704305112361908,
				1.4088364839553833,
				0.8014620542526245
			],
			"min":[
				-0.7043051719665527,
				1.0352919101715088,
				-0.41843050718307495
			],
			"type":"VEC3"
		},
		{
			"bufferView":29,
			"componentType":5126,
			"count":307,
			"type":"VEC3"
		},
		{
			"bufferView":30,
			"componentType":5126,
			"count":307,
			"type":"VEC2"
		},
		{
			"bufferView":31,
			"componentType":5123,
			"count":1152,
			"type":"SCALAR"
		},
		{
			"bufferView":32,
			"componentType":5126,
			"count":176,
			"max":[
				2.3977622985839844,
				-1.0951647758483887,
				2.3977622985839844
			],
			"min":[
				-2.3977622985839844,
				-1.0951651334762573,
				-2.397764205932617
			],
			"type":"VEC3"
		},
		{
			"bufferView":33,
			"componentType":5126,
			"count":176,
			"type":"VEC3"
		},
		{
			"bufferView":34,
			"componentType":5126,
			"count":176,
			"type":"VEC2"
		},
		{
			"bufferView":35,
			"componentType":5123,
			"count":768,
			"type":"SCALAR"
		},
		{
			"bufferView":36,
			"componentType":5126,
			"count":432,
			"max":[
				1.9093040227890015,
				-0.26236432790756226,
				1.8826515674591064
			],
			"min":[
				-1.9093040227890015,
				-0.5797258615493774,
				-1.8826515674591064
			],
			"type":"VEC3"
		},
		{
			"bufferView":37,
			"componentType":5126,
			"count":432,
			"type":"VEC3"
		},
		{
			"bufferView":38,
			"componentType":5126,
			"count":432,
			"type":"VEC2"
		},
		{
			"bufferView":39,
			"componentType":5123,
			"count":1080,
			"type":"SCALAR"
		}
	],
	"bufferViews":[
		{
			"buffer":0,
			"byteLength":16848,
			"byteOffset":0,
			"target":34962
		},
		{
			"buffer":0,
			"byteLength":16848,
			"byteOffset":16848,
			"target":34962
		},
		{
			"buffer":0,
			"byteLength":11232,
			"byteOffset":33696,
			"target":34962
		},
		{
			"buffer":0,
			"byteLength":7068,
			"byteOffset":44928,
			"target":34963
		},
		{
			"buffer":0,
			"byteLength":26040,
			"byteOffset":51996,
			"target":34962
		},
		{
			"buffer":0,
			"byteLength":26040,
			"byteOffset":78036,
			"target":34962
		},
		{
			"buffer":0,
			"byteLength":17360,
			"byteOffset":104076,
			"target":34962
		},
		{
			"buffer":0,
			"byteLength":24576,
			"byteOffset":121436,
			"target":34963
		},
		{
			"buffer":0,
			"byteLength":192,
			"byteOffset":146012,
			"target":34962
		},
		{
			"buffer":0,
			"byteLength":192,
			"byteOffset":146204,
			"target":34962
		},
		{
			"buffer":0,
			"byteLength":128,
			"byteOffset":146396,
			"target":34962
		},
		{
			"buffer":0,
			"byteLength":48,
			"byteOffset":146524,
			"target":34963
		},
		{
			"buffer":0,
			"byteLength":288,
			"byteOffset":146572,
			"target":34962
		},
		{
			"buffer":0,
			"byteLength":288,
			"byteOffset":146860,
			"target":34962
		},
		{
			"buffer":0,
			"byteLength":192,
			"byteOffset":147148,
			"target":34962
		},
		{
			"buffer":0,
			"byteLength":72,
			"byteOffset":147340,
			"target":34963
		},
		{
			"buffer":0,
			"byteLength":6480,
			"byteOffset":147412,
			"target":34962
		},
		{
			"buffer":0,
			"byteLength":6480,
			"byteOffset":153892,
			"target":34962
		},
		{
			"buffer":0,
			"byteLength":4320,
			"byteOffset":160372,
			"target":34962
		},
		{
			"buffer":0,
			"byteLength":2268,
			"byteOffset":164692,
			"target":34963
		},
		{
			"buffer":0,
			"byteLength":29676,
			"byteOffset":166960,
			"target":34962
		},
		{
			"buffer":0,
			"byteLength":29676,
			"byteOffset":196636,
			"target":34962
		},
		{
			"buffer":0,
			"byteLength":19784,
			"byteOffset":226312,
			"target":34962
		},
		{
			"buffer":0,
			"byteLength":18432,
			"byteOffset":246096,
			"target":34963
		},
		{
			"buffer":0,
			"byteLength":11112,
			"byteOffset":264528,
			"target":34962
		},
		{
			"buffer":0,
			"byteLength":11112,
			"byteOffset":275640,
			"target":34962
		},
		{
			"buffer":0,
			"byteLength":7408,
			"byteOffset":286752,
			"target":34962
		},
		{
			"buffer":0,
			"byteLength":8448,
			"byteOffset":294160,
			"target":34963
		},
		{
			"buffer":0,
			"byteLength":3684,
			"byteOffset":302608,
			"target":34962
		},
		{
			"buffer":0,
			"byteLength":3684,
			"byteOffset":306292,
			"target":34962
		},
		{
			"buffer":0,
			"byteLength":2456,
			"byteOffset":309976,
			"target":34962
		},
		{
			"buffer":0,
			"byteLength":2304,
			"byteOffset":312432,
			"target":34963
		},
		{
			"buffer":0,
			"byteLength":2112,
			"byteOffset":314736,
			"target":34962
		},
		{
			"buffer":0,
			"byteLength":2112,
			"byteOffset":316848,
			"target":34962
		},
		{
			"buffer":0,
			"byteLength":1408,
			"byteOffset":318960,
			"target":34962
		},
		{
			"buffer":0,
			"byteLength":1536,
			"byteOffset":320368,
			"target":34963
		},
		{
			"buffer":0,
			"byteLength":5184,
			"byteOffset":321904,
			"target":34962
		},
		{
			"buffer":0,
			"byteLength":5184,
			"byteOffset":327088,
			"target":34962
		},
		{
			"buffer":0,
			"byteLength":3456,
			"byteOffset":332272,
			"target":34962
		},
		{
			"buffer":0,
			"byteLength":2160,
			"byteOffset":335728,
			"target":34963
		}
	],
	"samplers":[
		{
			"magFilter":9728,
			"minFilter":9984
		},
		{
			"magFilter":9729,
			"minFilter":9987
		}
	],
	"buffers":[
		{
			"byteLength":337888,
			"uri":"eightfold_world_layout.bin"
		}
	]
}
